<svg width="19" height="23" viewBox="0 0 19 23" fill="none" xmlns="http://www.w3.org/2000/svg">
<path d="M11.5 1H3.1C2.54305 1 2.0089 1.22125 1.61508 1.61508C1.22125 2.0089 1 2.54305 1 3.1V19.9C1 20.457 1.22125 20.9911 1.61508 21.3849C2.0089 21.7787 2.54305 22 3.1 22H15.7C16.257 22 16.7911 21.7787 17.1849 21.3849C17.5787 20.9911 17.8 20.457 17.8 19.9V7.3L11.5 1Z" stroke="#2B1C1C" stroke-opacity="0.5" stroke-width="2" stroke-linecap="round" stroke-linejoin="round"/>
<path d="M11.5 1V7.3H17.8" stroke="#2B1C1C" stroke-opacity="0.5" stroke-width="2" stroke-linecap="round" stroke-linejoin="round"/>
<path d="M13.6002 12.55H5.2002" stroke="#2B1C1C" stroke-opacity="0.5" stroke-width="2" stroke-linecap="round" stroke-linejoin="round"/>
<path d="M13 16H5" stroke="#2B1C1C" stroke-opacity="0.5" stroke-width="2" stroke-linecap="round" stroke-linejoin="round"/>
<path d="M7 8H6H5" stroke="#2B1C1C" stroke-opacity="0.5" stroke-width="2" stroke-linecap="round" stroke-linejoin="round"/>
</svg>

