<svg width="60" height="60" viewBox="0 0 60 60" fill="none" xmlns="http://www.w3.org/2000/svg">
<path d="M60 29.3724C60 29.1213 60 28.8703 60 28.7448C60 28.6192 60 28.6192 60 28.4937C60 28.3682 60 28.1172 60 27.9916C60 27.7406 60 27.4895 60 27.2385C60 27.113 60 26.8619 60 26.7364C60 26.6109 60 26.6109 60 26.4854C60 26.3598 60 26.1088 60 25.9833V25.8577C60 25.7322 60 25.4812 59.8758 25.3556C59.8758 25.3556 59.8758 25.3556 59.8758 25.2301C59.8758 24.9791 59.7515 24.8536 59.7515 24.6025C59.7515 24.6025 59.7515 24.6025 59.7515 24.477C59.7515 24.3515 59.7516 24.1004 59.6273 23.9749C59.6273 23.9749 59.6273 23.9749 59.6273 23.8494V23.7239C59.6273 23.5983 59.5031 23.3473 59.5031 23.2218C59.5031 22.9707 59.3789 22.8452 59.3789 22.5941C59.3789 22.4686 59.2547 22.3431 59.2547 22.092C59.2547 21.9665 59.2547 21.9665 59.2547 21.841C59.2547 21.7155 59.1304 21.4644 59.1304 21.3389V21.2134C59.1304 20.9623 59.0062 20.8368 59.0062 20.5858C58.882 20.3347 58.882 20.2092 58.7578 19.9582C58.6335 19.7071 58.6335 19.5816 58.5093 19.3305C58.3851 19.0795 58.3851 18.954 58.2609 18.7029C58.1366 18.5774 58.1366 18.3264 58.0124 18.2008C58.0124 18.2008 58.0124 18.0753 57.8882 18.0753C57.764 17.9498 57.764 17.6987 57.6398 17.5732C57.5155 17.1967 57.2671 16.8201 57.0186 16.4435C56.8944 16.1925 56.7702 16.0669 56.7702 15.8159C56.646 15.6904 56.646 15.4393 56.5217 15.3138C56.3975 15.0628 56.2733 14.9372 56.1491 14.6862C56.0248 14.5607 55.9006 14.3096 55.9006 14.1841C55.9006 14.1841 55.9006 14.0586 55.7764 14.0586C55.6522 13.9331 55.5279 13.682 55.4037 13.5565C55.4037 13.5565 55.4037 13.431 55.2795 13.431C55.1553 13.3054 55.0311 13.1799 55.0311 13.0544C54.9068 12.9289 54.7826 12.8033 54.6584 12.5523C54.6584 12.4268 54.5342 12.4268 54.5342 12.3013C54.4099 12.0502 54.1615 11.7992 53.913 11.5481L53.7888 11.4226C53.4161 10.9205 53.0435 10.4184 52.6708 10.0418L52.5466 9.91632C51.9255 9.16318 51.1801 8.41004 50.4348 7.78243C50.3106 7.6569 50.3106 7.6569 50.1863 7.53138C49.8137 7.15481 49.441 6.90377 49.0683 6.5272C48.9441 6.40167 48.9441 6.40167 48.8199 6.27615C48.5714 6.0251 48.1988 5.77406 47.9503 5.64854C47.8261 5.52301 47.8261 5.52301 47.7019 5.39749C47.4534 5.14644 47.0807 5.02092 46.8323 4.76987C46.7081 4.64435 46.5839 4.51883 46.3354 4.51883C46.2112 4.39331 45.9627 4.26778 45.8385 4.26778C45.7143 4.26778 45.7143 4.14226 45.5901 4.14226C44.8447 3.76569 44.0994 3.2636 43.354 2.88703C43.2298 2.76151 43.1056 2.76151 42.9814 2.63598C42.8571 2.63598 42.8571 2.51046 42.7329 2.51046C42.6087 2.51046 42.4845 2.38494 42.3602 2.38494C42.236 2.38494 42.236 2.38494 42.1118 2.25941C41.8634 2.13389 41.4907 2.00837 41.2422 1.88285C41.118 1.88285 41.118 1.75732 40.9938 1.75732C40.8696 1.75732 40.6211 1.6318 40.4969 1.6318C40.3727 1.6318 40.1242 1.50628 40 1.50628C39.8758 1.50628 39.8758 1.50628 39.7516 1.38075C39.5031 1.25523 39.2547 1.25523 39.0062 1.12971C38.882 1.12971 38.7578 1.00418 38.6335 1.00418C38.3851 1.00418 38.2609 0.878661 38.0124 0.878661C37.8882 0.878661 37.6398 0.753138 37.5155 0.753138C37.0186 0.627615 36.3975 0.502092 35.9006 0.376569C35.7764 0.376569 35.6522 0.376569 35.528 0.251046C35.528 0.251046 35.528 0.251046 35.4037 0.251046C35.2795 0.251046 35.1553 0.251046 34.9068 0.125523C34.7826 0.125523 34.6584 0.125523 34.5342 0.125523C34.2857 0.125523 34.1615 0.125523 33.913 0C33.7888 0 33.6646 0 33.5404 0C33.4161 0 33.1677 0 33.0435 0C32.9193 0 32.9193 0 32.795 0C32.5466 0 32.2981 0 32.0497 0H31.9255C31.8012 0 31.8012 0 31.677 0C31.5528 0 31.4286 0 31.1801 0C31.0559 0 31.0559 0 30.9317 0C30.8075 0 30.559 0 30.4348 0C30.3106 0 30.0621 0 29.9379 0C29.8137 0 29.8137 0 29.6894 0C29.5652 0 29.441 0 29.1925 0C29.0683 0 29.0683 0 28.9441 0H28.8199C28.5714 0 28.323 0 28.0745 0C27.9503 0 27.9503 0 27.8261 0C27.7019 0 27.4534 0 27.3292 0C27.205 0 27.0807 0 26.9565 0C26.7081 0 26.5839 9.35219e-09 26.3354 0.125523C26.2112 0.125523 26.087 0.125523 25.9627 0.125523C25.8385 0.125523 25.5901 0.125523 25.4658 0.251046C25.3416 0.251046 25.2174 0.251046 25.0932 0.376569C24.5963 0.502092 23.9752 0.627615 23.4783 0.753138C23.354 0.753138 23.1056 0.878661 22.9814 0.878661C22.7329 0.878661 22.6087 1.00418 22.3602 1.00418C22.236 1.00418 22.1118 1.12971 21.9876 1.12971C21.7391 1.25523 21.4907 1.25523 21.2422 1.38075C21.118 1.38075 21.118 1.38075 20.9938 1.50628C20.8696 1.50628 20.6211 1.6318 20.4969 1.6318C20.3727 1.6318 20.1242 1.75732 20 1.75732C19.8758 1.75732 19.8758 1.88285 19.7516 1.88285C19.5031 2.00837 19.1304 2.13389 18.882 2.25941C18.7578 2.25941 18.7578 2.25941 18.6335 2.38494C18.5093 2.38494 18.3851 2.51046 18.2609 2.51046C18.1366 2.51046 18.1366 2.63598 18.0124 2.63598C17.8882 2.76151 17.764 2.76151 17.6398 2.88703C16.8944 3.2636 16.1491 3.64017 15.4037 4.14226C15.2795 4.14226 15.2795 4.26778 15.1553 4.26778C15.0311 4.39331 14.7826 4.51883 14.6584 4.51883C13.7888 4.51883 13.6646 4.64435 13.5404 4.76987C13.1677 5.02092 12.9193 5.14644 12.6708 5.39749C12.5466 5.39749 12.5466 5.52301 12.4224 5.64854C12.0497 5.77406 11.8012 6.0251 11.4286 6.27615C11.4286 6.27615 11.3043 6.40167 11.1801 6.40167C10.8075 6.77824 10.4348 7.02929 10.0621 7.40586C10.0621 7.40586 9.93789 7.53138 9.81366 7.6569C9.06832 8.28452 8.4472 9.03766 7.70186 9.7908L7.57764 9.91632C7.20497 10.4184 6.8323 10.9205 6.45963 11.2971L6.3354 11.4226C6.08696 11.7992 5.83851 12.0502 5.71429 12.3013C5.71429 12.4268 5.59006 12.4268 5.59006 12.5523C5.46584 12.6778 5.34161 12.8033 5.21739 13.0544C5.09317 13.1799 4.96894 13.3054 4.96894 13.431C4.96894 13.431 4.96894 13.5565 4.84472 13.5565C4.7205 13.682 4.59627 13.9331 4.47205 14.0586C4.47205 14.0586 4.47205 14.1841 4.34783 14.1841C4.2236 14.3096 4.09938 14.5607 4.09938 14.6862C3.97516 14.9372 3.85093 15.0628 3.72671 15.3138C3.60248 15.4393 3.60248 15.6904 3.47826 15.8159C3.35404 16.0669 3.22981 16.1925 3.22981 16.4435C2.98137 16.8201 2.85714 17.1967 2.6087 17.5732C2.6087 17.8243 2.48447 17.9498 2.48447 18.0753C2.48447 18.0753 2.48447 18.2008 2.36025 18.2008C2.23602 18.3264 2.23602 18.5774 2.1118 18.7029C1.98758 18.954 1.98758 19.0795 1.86335 19.3305C1.73913 19.5816 1.73913 19.7071 1.61491 19.9582C1.49068 20.2092 1.49068 20.3347 1.36646 20.5858C1.36646 20.7113 1.24224 20.9623 1.24224 21.2134V21.3389C1.24224 21.4644 1.11801 21.7155 1.11801 21.841C1.11801 21.9665 1.11801 21.9665 1.11801 22.092C1.11801 22.2176 0.993789 22.3431 0.993789 22.5941C0.993789 22.8452 0.869565 22.9707 0.869565 23.2218C0.869565 23.3473 0.745342 23.5983 0.745342 23.7239V23.8494C0.745342 23.8494 0.745342 23.8494 0.745342 23.9749C0.745342 24.1004 0.621118 24.3515 0.621118 24.477C0.621118 24.477 0.621118 24.477 0.621118 24.6025C0.621118 24.8536 0.496894 24.9791 0.496894 25.2301C0.496894 25.2301 0.496894 25.2301 0.496894 25.3556C0.496894 25.4812 0.496894 25.7322 0.372671 25.8577V25.9833C0.372671 26.1088 0.372671 26.3598 0.372671 26.4854C0.372671 26.6109 0.372671 26.6109 0.372671 26.7364C0.372671 26.8619 0.372671 27.113 0.372671 27.2385C0.372671 27.4895 0.372671 27.7406 0.372671 27.9916C0.372671 28.1172 0.372671 28.3682 0.372671 28.4937C0 28.6192 0 28.6192 0 28.7448C0 28.9958 0 29.1213 0 29.3724V29.4979C0 29.749 0 30 0 30.1255C0 30.3766 0 30.6276 0 30.8787C0 31.0042 0 31.1297 0 31.2552C0 31.3808 0 31.6318 0 31.7573C0 31.8828 0 32.0084 0 32.1339C0 32.2594 0 32.3849 0 32.3849C0 32.5105 0 32.5105 0 32.636C0 32.7615 0 32.7615 0 32.887C0 33.0126 0 33.1381 0 33.2636C0 33.3891 0 33.3891 0 33.5146C0 33.6402 0 33.7657 0 33.8912C0 34.0167 0 34.1423 0 34.2678C0 34.5188 0 34.6444 0.124224 34.8954C0.124224 35.0209 0.124224 35.1464 0.248447 35.272C0.248447 35.3975 0.248447 35.523 0.372671 35.6485V35.7741C0.372671 36.0251 0.496894 36.1506 0.496894 36.4017C0.621118 36.7782 0.621118 37.1548 0.745342 37.5314C0.869565 37.908 0.993789 38.2845 0.993789 38.6611C1.36646 40.0418 1.86335 41.2971 2.48447 42.5523C2.48447 42.6778 2.6087 42.6778 2.6087 42.8033C2.73292 43.1799 2.85714 43.431 3.10559 43.8075C3.22981 44.0586 3.35404 44.3096 3.47826 44.4351C3.72671 44.9372 4.09938 45.5649 4.47205 46.0669C4.59627 46.1925 4.59627 46.318 4.7205 46.4435C6.08696 48.4519 7.57764 50.3347 9.31677 52.0921C9.44099 52.2176 9.44099 52.2176 9.56522 52.3431L9.68944 52.4686C9.81366 52.5941 9.93789 52.7197 10.1863 52.8452C12.795 55.1046 16.1491 56.4854 19.8758 56.4854C21.6149 56.4854 23.354 56.2343 24.8447 55.6067C27.8261 54.6025 30.3106 52.5941 32.0497 50.0837C33.7888 47.5732 34.7826 44.5607 34.7826 41.2971V32.1339H29.8137C27.0807 32.1339 24.8447 34.3933 24.8447 37.1548V41.1716C24.8447 43.9331 22.7329 46.318 20 46.318C18.7578 46.318 17.6398 45.9414 16.7702 45.1883C16.646 45.0628 16.5217 45.0628 16.5217 44.9372C16.5217 44.9372 16.5217 44.9372 16.3975 44.8117C12.4224 41.1716 9.93789 35.7741 9.93789 29.8745C9.93789 20.4603 16.2733 12.5523 24.9689 10.2929C26.5839 9.91632 28.1988 9.66527 29.9379 9.66527C31.677 9.66527 33.2919 9.91632 34.9068 10.2929C43.4783 12.5523 49.9379 20.4603 49.9379 29.8745C49.9379 38.159 44.9689 45.3138 38.0124 48.4519C36.2733 49.205 34.9068 50.9623 34.9068 53.0962V60C37.2671 59.6234 39.6273 58.8703 41.7391 57.9916H41.8634C41.9876 57.8661 42.236 57.8661 42.3602 57.7406C42.4845 57.6151 42.7329 57.6151 42.8571 57.4895C42.9814 57.364 43.2298 57.364 43.354 57.2385C43.4783 57.113 43.6025 57.113 43.8509 56.9874C43.9752 56.9874 44.0994 56.8619 44.2236 56.7364C44.3478 56.7364 44.472 56.6109 44.472 56.6109C44.5963 56.4854 44.8447 56.3598 44.9689 56.3598C45.3416 56.1088 45.7143 55.9833 45.9627 55.7322C46.087 55.7322 46.087 55.6067 46.2112 55.6067C46.7081 55.2301 47.205 54.9791 47.7019 54.6025C47.8261 54.477 47.9503 54.477 47.9503 54.3515C48.1988 54.1004 48.5714 53.8494 48.8199 53.7239C48.9441 53.5983 49.1925 53.4728 49.3168 53.2218C49.441 53.0962 49.441 53.0962 49.5652 52.9707C49.6894 52.8452 49.9379 52.5941 50.0621 52.4686C50.1863 52.3431 50.1863 52.3431 50.3106 52.2176C50.4348 52.0921 50.4348 52.092 50.559 51.9665C50.6832 51.841 50.9317 51.59 51.0559 51.4644C51.3043 51.2134 51.5528 50.9623 51.8012 50.7113C51.9255 50.5858 51.9255 50.5858 52.0497 50.4603C52.1739 50.3347 52.1739 50.3347 52.2981 50.2092C52.4224 50.0837 52.4224 50.0837 52.5466 49.9582C52.6708 49.8326 52.6708 49.8326 52.795 49.7071C53.0435 49.4561 53.2919 49.205 53.4161 48.8285C53.5404 48.5774 53.6646 48.4519 53.913 48.2008C54.0373 48.0753 54.0373 47.9498 54.1615 47.9498C54.2857 47.6987 54.4099 47.5732 54.5342 47.3222C54.6584 47.1967 54.6584 47.0711 54.7826 47.0711C54.9068 46.8201 55.0311 46.6946 55.1553 46.4435C55.2795 46.318 55.2795 46.1925 55.4037 46.1925C55.5279 45.9414 55.6522 45.8159 55.7764 45.5649C55.7764 45.4393 55.9006 45.3138 55.9006 45.3138C56.0248 45.0628 56.1491 44.9372 56.2733 44.6862C56.2733 44.5607 56.3975 44.5607 56.3975 44.4351C56.5217 44.3096 56.5217 44.1841 56.646 44.0586C56.7702 43.9331 56.7702 43.8075 56.8944 43.5565C57.0186 43.431 57.0186 43.1799 57.1429 43.0544C57.1429 42.9289 57.2671 42.8033 57.2671 42.6778C57.2671 42.5523 57.3913 42.4268 57.3913 42.3013C57.3913 42.1757 57.5155 42.0502 57.5155 41.9247C57.6398 41.7992 57.6398 41.5481 57.764 41.4226C57.764 41.2971 57.8882 41.1715 57.8882 40.9205C58.0124 40.795 58.0124 40.5439 58.1366 40.4184C58.1366 40.2929 58.2609 40.0418 58.2609 39.9163C58.2609 39.7908 58.3851 39.5397 58.3851 39.4142C58.3851 39.2887 58.5093 39.0377 58.5093 38.9121C58.5093 38.7866 58.6335 38.6611 58.6335 38.5356C58.6335 38.41 58.6335 38.41 58.6335 38.2845C58.6335 38.159 58.6335 38.0335 58.7578 37.908C58.7578 37.6569 58.882 37.4059 58.882 37.1548C58.882 37.0293 58.882 36.9038 59.0062 36.7782C59.0062 36.5272 59.1304 36.4017 59.1304 36.1506C59.1304 36.0251 59.2547 35.7741 59.2547 35.6485C59.2547 35.523 59.2547 35.3975 59.3789 35.1464C59.3789 35.1464 59.3789 35.1464 59.3789 35.0209C59.3789 34.8954 59.3789 34.7699 59.3789 34.6444C59.3789 34.5188 59.3789 34.3933 59.3789 34.2678C59.3789 34.1423 59.3789 34.0167 59.3789 33.8912C59.3789 33.7657 59.3789 33.5146 59.3789 33.3891C59.3789 33.2636 59.3789 33.0126 59.3789 32.887C59.3789 32.887 59.3789 32.887 59.3789 32.7615C59.3789 32.636 59.3789 32.5105 59.3789 32.2594C59.3789 32.1339 59.3789 32.1339 59.3789 32.0084C59.3789 31.8828 59.3789 31.7573 59.3789 31.6318C59.3789 31.3808 59.3789 31.2552 59.3789 31.0042C59.3789 30.7531 59.3789 30.6276 59.3789 30.3766C60 29.8745 60 29.6234 60 29.3724Z" fill="#FF2E2E"/>
</svg>
